<svg xmlns="http://www.w3.org/2000/svg" width="39" height="46" viewBox="0 0 39 46">
    <g fill="none" fill-rule="evenodd">
        <path fill="#434A54" fill-rule="nonzero" d="M36.478 19.375c0-.189-.243-.57-.89-1.367l-.084-.104c-.855-1.056-1.195-1.624-1.401-2.387-.157-.582-.19-1.196-.112-1.97.027-.265.056-.486.13-.962.15-.99.173-1.448.094-1.582-.08-.138-.487-.353-1.316-.673l-.112-.043c-1.435-.553-1.986-.854-2.582-1.445-.597-.59-.902-1.135-1.46-2.557l-.044-.11c-.323-.821-.54-1.223-.68-1.303-.125-.072-.58-.058-1.4.063l-.14.021c-.534.08-.758.11-1.028.137-.782.077-1.403.045-1.992-.11-.8-.212-1.33-.528-2.516-1.471-.805-.64-1.19-.88-1.382-.88-.155 0-.51.2-1.034.605-.079.06-.159.124-.285.224-1.245.99-1.775 1.309-2.58 1.521-.824.218-1.46.208-2.993-.022-.972-.146-1.431-.166-1.567-.089-.148.085-.36.487-.723 1.414-.559 1.42-.863 1.966-1.46 2.556-.55.545-1.157.89-2.315 1.342l-.268.104-.112.043c-.829.32-1.235.534-1.316.672-.072.124-.058.575.065 1.385l.021.14c.08.527.11.749.138 1.016.077.775.046 1.39-.112 1.974-.214.792-.533 1.317-1.486 2.49a31.99 31.99 0 0 0-.277.345c-.41.52-.612.87-.612 1.023 0 .152.202.503.61 1.02.062.079.126.158.228.284 1 1.232 1.322 1.757 1.537 2.554.157.583.19 1.197.112 1.97-.027.266-.057.487-.13.962-.151.99-.173 1.448-.094 1.582.08.139.487.353 1.316.673l.112.043c1.435.553 1.986.854 2.582 1.445.597.59.902 1.135 1.46 2.557l.044.11c.323.821.54 1.223.68 1.303.125.072.581.058 1.4-.063l.14-.021c.536-.08.76-.11 1.03-.137.272-.027.517-.04.75-.04.449 0 .856.049 1.24.15.8.212 1.33.528 2.516 1.471.805.64 1.19.88 1.383.88.191 0 .577-.24 1.382-.88l.105-.083c1.067-.847 1.64-1.184 2.41-1.387.825-.219 1.46-.208 2.994.022.972.146 1.431.166 1.567.088.148-.084.36-.486.723-1.413.559-1.42.864-1.966 1.46-2.557.597-.59 1.147-.892 2.583-1.445l.112-.043c.829-.32 1.235-.534 1.316-.672.072-.124.058-.575-.065-1.385l-.02-.14c-.237-1.542-.248-2.172-.027-2.99.214-.792.534-1.317 1.486-2.49.646-.797.89-1.179.89-1.368zm-.626 6.563l.026.168c.208 1.374.184 1.935-.151 2.51-.347.592-.825.889-2.194 1.417l-.113.044c-1.171.45-1.598.677-1.981 1.056-.384.38-.612.802-1.067 1.96-.587 1.494-.858 1.93-1.477 2.284-.608.349-1.113.363-2.703.124-1.255-.188-1.745-.203-2.28-.06-.488.128-.917.388-1.77 1.065l-.104.082c-1.272 1.013-1.742 1.262-2.476 1.262-.733 0-1.203-.25-2.475-1.262-.962-.765-1.365-1.013-1.874-1.148a3.063 3.063 0 0 0-.788-.091c-.175 0-.364.01-.578.03-.232.023-.435.05-.881.117l-.145.022c-1.446.214-2.012.191-2.592-.14-.598-.343-.898-.817-1.432-2.173l-.045-.112c-.455-1.159-.683-1.58-1.066-1.96-.383-.38-.81-.606-1.981-1.056l-.113-.044c-1.37-.529-1.848-.826-2.194-1.418-.352-.603-.367-1.103-.125-2.678.072-.471.1-.673.122-.904.057-.564.038-.987-.06-1.352-.136-.503-.387-.902-1.16-1.854-.153-.189-.224-.276-.294-.366C1.17 20.56.9 20.01.9 19.375c0-.636.271-1.186.983-2.089l.24-.3c.82-1.01 1.075-1.411 1.212-1.917.099-.366.117-.79.06-1.355-.023-.229-.05-.429-.117-.87l-.022-.142c-.216-1.432-.193-1.993.143-2.567.346-.593.824-.89 2.193-1.418l.114-.044.26-.101c.914-.357 1.37-.608 1.72-.955.384-.38.612-.802 1.067-1.96.587-1.494.858-1.93 1.477-2.285.608-.348 1.113-.362 2.703-.124 1.254.189 1.745.203 2.28.062.509-.135.912-.383 1.874-1.149l.368-.29c.91-.703 1.467-.971 2.108-.971.733 0 1.203.25 2.476 1.262.961.765 1.364 1.013 1.873 1.148.37.098.797.116 1.37.06.23-.023.433-.05.879-.116l.144-.022c1.445-.214 2.012-.19 2.59.14.599.344.9.817 1.433 2.173l.045.112c.455 1.159.683 1.58 1.066 1.96.384.38.81.606 1.981 1.057l.113.043c1.37.529 1.848.826 2.194 1.418.352.603.367 1.103.125 2.678-.072.472-.1.674-.123.905-.056.564-.037.986.061 1.352.13.482.393.906 1.077 1.75l.083.103c1.023 1.26 1.275 1.725 1.275 2.452 0 .727-.252 1.192-1.275 2.452-.773.952-1.024 1.351-1.16 1.854-.143.53-.128 1.014.062 2.257z"/>
        <ellipse cx="19.938" cy="19.75" fill="#F05562" rx="11.813" ry="11.625"/>
        <path fill="#FFF" fill-rule="nonzero" d="M25.768 13.045a1.032 1.032 0 0 1 1.434-.226c.458.33.56.967.227 1.422l-8.947 12.214c-.343.469-1.01.56-1.468.2l-4.75-3.74a1.012 1.012 0 0 1-.167-1.43c.353-.44.998-.514 1.442-.165l3.912 3.08 8.317-11.355z"/>
        <path fill="#434A54" fill-rule="nonzero" d="M19.938 7.375a.77.77 0 0 1 .775.764.77.77 0 0 1-.776.764c-6.081 0-11.011 4.856-11.011 10.847 0 5.99 4.93 10.847 11.011 10.847 6.082 0 11.012-4.856 11.012-10.847a.77.77 0 0 1 .776-.764.77.77 0 0 1 .775.764c0 6.835-5.624 12.375-12.563 12.375-6.938 0-12.562-5.54-12.562-12.375S12.999 7.375 19.938 7.375z"/>
        <path fill="#55C6D9" fill-rule="nonzero" d="M28.923 37.077a.84.84 0 0 1 .85-.827c.47 0 .852.37.852.827v7.72c0 .533-.51.927-1.044.806l-9.569-2.162-9.72 2.163c-.534.118-1.042-.275-1.042-.807v-5.146a.84.84 0 0 1 .851-.828c.47 0 .851.37.851.828v4.108l8.872-1.974a.875.875 0 0 1 .382.001l8.717 1.97v-6.679zM10.188 36.25c-.247 0-.489.1-.663.275a.945.945 0 0 0-.275.663c0 .246.1.488.275.663a.944.944 0 0 0 .662.274c.247 0 .489-.1.663-.274a.946.946 0 0 0 .275-.663c0-.247-.1-.489-.275-.663a.945.945 0 0 0-.662-.275z"/>
        <path fill="#434A54" fill-rule="nonzero" d="M22.938 7.375c-.247 0-.489.1-.663.275a.945.945 0 0 0-.275.663c0 .246.1.488.275.663a.944.944 0 0 0 .663.274c.246 0 .488-.1.662-.274a.946.946 0 0 0 .275-.663c0-.247-.1-.489-.275-.663a.945.945 0 0 0-.663-.275z"/>
    </g>
</svg>
