<svg xmlns="http://www.w3.org/2000/svg" width="41" height="45" viewBox="0 0 41 45">
    <g fill="none" fill-rule="evenodd">
        <g fill-rule="nonzero">
            <path fill="#F05562" d="M34.143 32.928c3.123 0 5.655-2.525 5.655-5.638 0-3.114-2.532-5.638-5.655-5.638v11.276z"/>
            <g fill="#434A54">
                <path d="M35.495 5.187C32.139 1.842 27.696 0 22.983 0s-9.156 1.842-12.512 5.187a17.83 17.83 0 0 0-3.154 4.24c-.528 1.439 1.176 1.79 1.589.834 2.672-5.032 7.98-8.468 14.077-8.468 8.776 0 15.916 7.118 15.916 15.867v5.14a6.544 6.544 0 0 0-4.756-2.045c-.496 0-.899.402-.899.897v11.276c0 .495.403.896.9.896 3.58 0 6.497-2.877 6.55-6.434.002-.011.002-3.254.003-9.73 0-4.698-1.847-9.128-5.202-12.473zm-.453 26.76v-9.314c2.194.42 3.857 2.349 3.857 4.657s-1.663 4.236-3.857 4.656zM39.058 32.837a.87.87 0 0 0-.867.865c0 .227.093.45.254.612a.874.874 0 0 0 1.226 0 .871.871 0 0 0 .254-.611.87.87 0 0 0-.867-.866zM38.568 35.65a.901.901 0 0 0-1.229.329c-1.746 3.013-4.49 5.086-7.968 6.037l-.451-2.123a.898.898 0 0 0-1.066-.69l-3.035.646a.898.898 0 0 0-.693 1.063l.643 3.026a.898.898 0 0 0 1.066.69l3.035-.645c4.406-.937 7.873-3.395 10.026-7.108a.894.894 0 0 0-.328-1.225zM26.07 41.415l1.276-.27.27 1.271-1.275.271-.27-1.272z"/>
            </g>
        </g>
        <path fill="#55C6D9" fill-rule="nonzero" d="M3.33 13.74c-.766 0-1.388.619-1.388 1.383v15.958c0 .764.622 1.383 1.388 1.383h20.528l2.354 2.892a.278.278 0 0 0 .493-.174V15.123c0-.764-.62-1.383-1.387-1.383H3.33zm0 20.384A3.048 3.048 0 0 1 .277 31.08V15.123A3.048 3.048 0 0 1 3.33 12.08h21.988a3.048 3.048 0 0 1 3.052 3.043v20.059a1.945 1.945 0 1 1-3.45 1.22l-1.855-2.278H3.33z"/>
        <path fill="#434A54" d="M3.762 25.148V23.87l2.96-3.052c.556-.583.99-1.154.99-1.737 0-.694-.47-1.129-1.127-1.129-.669 0-1.164.397-1.449 1.018L3.7 18.126c.557-1.24 1.684-1.836 2.86-1.836 1.486 0 2.86.992 2.86 2.73 0 1.054-.606 1.96-1.424 2.778l-1.696 1.7h3.257v1.65H3.762zm13.47-3.064v1.588h-.93v1.476h-1.72v-1.476h-4.1v-1.588l2.986-5.794H15.3l-2.972 5.794h2.253v-2.06h1.721v2.06h.93zm2.205.155h5.597v1.451L22.1 30.923h-1.808l2.848-7.047h-3.703V22.24z"/>
        <path fill="#F05562" d="M21.334 16.597l-7.732 14.326h.75l7.726-14.326z"/>
    </g>
</svg>
