<svg xmlns="http://www.w3.org/2000/svg" width="359" height="142" viewBox="0 0 359 142">
    <defs>
        <linearGradient id="a" x1="50%" x2="50%" y1="128.809%" y2="0%">
            <stop offset="0%" stop-color="#FFF" stop-opacity="0"/>
            <stop offset="100%" stop-color="#FFF"/>
        </linearGradient>
    </defs>
    <g fill="none" fill-rule="evenodd" opacity=".14">
        <path fill="#76787A" d="M72.126 107.239l3.67-8.637c.483-1.14 2.084-1.788 3.225-1.303l6.624 2.809c1.09.463 1.579 1.898 1.058 3.123l-3.668 8.636-10.909-4.628zm19.408-3.389c1.265-2.978-.13-6.377-3.144-7.655l-8.739-3.708c-3.031-1.286-6.352.054-7.639 3.082L66 109.719 85.521 118l6.013-14.15zM118.285 27.436l1.799-8.826c.238-1.166 1.619-2.08 2.785-1.842l6.764 1.378c1.114.227 1.849 1.483 1.594 2.734l-1.8 8.826-11.142-2.27zm17.6-6.894c.621-3.044-1.34-5.976-4.418-6.602l-8.927-1.819c-3.095-.631-5.962 1.264-6.594 4.358L113 30.94 132.938 35l2.947-14.458zM192.085 109.865l-8.538-3.785c-1.127-.5-1.746-2.103-1.247-3.231l2.899-6.547c.476-1.078 1.912-1.543 3.122-1.006l8.537 3.785-4.773 10.784zM189.013 90.5c-2.944-1.305-6.348.03-7.666 3.01l-3.825 8.638c-1.327 2.997-.045 6.322 2.948 7.65L194.457 116 203 96.702 189.013 90.5zM232 66.535l-7.006-5.975c-.926-.79-1.061-2.479-.273-3.405l4.572-5.376c.753-.884 2.24-.922 3.233-.075l7.004 5.976-7.53 8.855zm2.522-19.17c-2.415-2.06-6.006-1.754-8.086.691l-6.033 7.094c-2.094 2.461-1.814 5.965.642 8.06L232.522 73 246 57.155l-11.478-9.79zM310.402 25.478l-8.623 2.615c-1.14.346-2.602-.434-2.947-1.57l-2.006-6.603c-.33-1.087.426-2.33 1.65-2.701l8.623-2.615 3.303 10.874zM295.96 13.284c-2.972.901-4.62 4.02-3.708 7.025l2.646 8.71c.92 3.023 3.951 4.642 6.974 3.725L316 28.46 310.088 9l-14.129 4.284zM336.01 69l5.517-.31L349 57.895 340.518 48l-5.518.31 8.482 9.896zM328 26.333l3.565 5.042 13.37.625L348 18.043 344.435 13l-3.063 13.957zM247.935 111l2.065-5.465L243.518 94l-12.453 4.269-2.065 5.465 12.453-4.268zM223.183 16L222 22.051 230.199 33l11.617-6.546 1.184-6.05-11.619 6.546zM273 49.67L267.281 48 256 55.251l5.256 12.08 5.72 1.669-5.257-12.079zM312 64.466L295.973 51 293 54.534 309.026 68zM267.98 33L270 12.506 266.02 12 264 32.494zM193.97 12L193 32.804l5.03.196.97-20.804zM26.719 94L24 114.37l4.281.63L31 94.63zM115 56.754L134.365 65 136 60.246 116.635 52zM9.628 17L9 23.075 18.277 33l11.095-7.64.628-6.074-11.094 7.64zM23.58 49L13 66.382 16.421 69 27 51.617zM44 18.421L59.924 32 63 28.578 47.076 15zM94.959 18.32h-.028v-.013l.028.012zm-11.14 3.067c-.013-1.265 1.232-2.52 2.508-2.534l8.409-.08h.218l1.046-.01v-.006l-.005-.447-.041-4.31-1.24.01v-.003l-9.774.092c-3.389.033-5.971 2.637-5.94 5.991L79.106 31l4.805-.046-.091-9.567zM157.014 31.036l.022-.017.006.01-.028.007zm6.567-8.783c.704.988.473 2.686-.466 3.425l-6.185 4.872-.16.126-.77.606.003.004.25.35 2.4 3.364.913-.718.002.004 7.19-5.663c2.494-1.964 2.974-5.488 1.104-8.108L161.785 12l-3.534 2.783 5.33 7.47zM82.893 56.103l.018.022-.01.008-.008-.03zm8.959 6.902c-.96.804-2.658.606-3.426-.397l-5.053-6.614-.13-.172-.63-.822-.003.004-.34.284-3.27 2.74.744.974-.002.003 5.872 7.688c2.038 2.666 5.563 3.076 8.108.944L102 60.702l-2.888-3.78-7.26 6.083zM46.675 62.262l.027.003-.002.013-.025-.016zm11.198-1.115c-.2 1.21-1.601 2.206-2.828 2.01l-8.079-1.293-.21-.034-1.005-.16-.001.005-.07.428-.68 4.12 1.192.19v.005l9.39 1.502c3.257.521 6.17-1.545 6.698-4.752L64 52.74 59.381 52l-1.508 9.147zM169.287 59.602l-.023-.013.005-.01.018.023zm-10.254-2.459c.551-1.037 2.103-1.508 3.126-.95l6.748 3.68.175.096.838.458.002-.004.196-.368 1.882-3.54-.995-.541.002-.005-7.841-4.278c-2.72-1.484-5.94-.507-7.403 2.248L151 62.896 154.856 65l4.177-7.857zM203.6 64.921l-.006-.026.01-.003-.004.03zm-5.29-9.93c1.225-.273 2.703.647 2.979 1.855l1.823 7.957.046.207.227.99.006-.001.433-.097L208 64.97l-.269-1.175h.004l-2.118-9.249c-.736-3.209-3.8-5.119-7.05-4.394L188 52.511l1.042 4.548 9.268-2.068zM302.407 104.577l-.02-.02.009-.008.011.028zm-9.7-5.47c.843-.911 2.541-.952 3.425-.083l5.816 5.725.15.148.724.71.003-.003.3-.322 2.875-3.105-.858-.844.002-.003-6.76-6.653c-2.346-2.308-5.87-2.224-8.108.192L283 102.727l3.324 3.273 6.382-6.893zM346.529 100L343 102.47l2.47 3.53 3.53-2.47zM132 102.027l.027 3.973 3.973-.027-.027-3.973z"/>
        <path fill="url(#a)" d="M0 0h359v141.91H0z" transform="rotate(180 179.5 71)"/>
    </g>
</svg>
